<?xml version="1.0" encoding="UTF-8"?>
<svg id="Layer_2" xmlns="http://www.w3.org/2000/svg" viewBox="0 0 32 32">
  <defs>
    <style>
      .cls-1 {
        fill: #fff;
      }

      .cls-2 {
        fill: #ff601b;
      }
    </style>
  </defs>
  <g id="Layer_1-2" data-name="Layer_1">
    <g>
      <rect class="cls-2" width="32" height="32" rx="4.57" ry="4.57"/>
      <g>
        <path class="cls-1" d="M9.02,6.97c-2.17,0-3.93,1.76-3.93,3.93s1.76,3.93,3.93,3.93,3.93-1.76,3.93-3.93-1.76-3.93-3.93-3.93ZM9.02,12.56c-.91,0-1.66-.74-1.66-1.65s.74-1.66,1.66-1.66,1.65.74,1.65,1.66-.74,1.65-1.65,1.65Z"/>
        <path class="cls-1" d="M20.53,3.36c-2.17,0-3.93,1.76-3.93,3.93s1.76,3.93,3.93,3.93,3.93-1.76,3.93-3.93-1.76-3.93-3.93-3.93ZM20.53,8.95c-.91,0-1.65-.74-1.65-1.65s.74-1.65,1.65-1.65,1.66.74,1.66,1.65-.74,1.65-1.66,1.65Z"/>
        <path class="cls-1" d="M7.38,21.49v3.14c0,.96.78,1.73,1.73,1.73s1.73-.78,1.73-1.73v-5.19l2.28-.67v5.86c0,2.21-1.8,4.01-4.01,4.01s-4.01-1.8-4.01-4.01v-3.14c0-2.34,1.57-4.42,3.82-5.06l19.19-5.72v2.38l-18.56,5.53c-1.28.36-2.17,1.55-2.17,2.87Z"/>
        <path class="cls-1" d="M20.67,28.64c-2.21,0-4.01-1.8-4.01-4.01v-6.89l2.28-.67v7.56c0,.96.78,1.73,1.73,1.73s1.73-.78,1.73-1.73v-8.49l2.28-.67v9.16c0,2.21-1.8,4.01-4.01,4.01Z"/>
      </g>
    </g>
  </g>
</svg>