<?xml version="1.0" encoding="UTF-8"?>
<svg id="Layer_2" xmlns="http://www.w3.org/2000/svg" viewBox="0 0 64 64">
  <defs>
    <style>
      .cls-1 {
        fill: #fff;
      }

      .cls-2 {
        fill: #ff601b;
      }
    </style>
  </defs>
  <g id="Layer_1-2" data-name="Layer_1">
    <g>
      <rect class="cls-2" width="64" height="64" rx="9.15" ry="9.15"/>
      <g>
        <path class="cls-1" d="M18.04,13.94c-4.33,0-7.86,3.53-7.86,7.86s3.53,7.86,7.86,7.86,7.86-3.53,7.86-7.86-3.53-7.86-7.86-7.86ZM18.04,25.11c-1.82,0-3.31-1.48-3.31-3.31s1.49-3.31,3.31-3.31,3.31,1.49,3.31,3.31-1.48,3.31-3.31,3.31Z"/>
        <path class="cls-1" d="M41.07,6.72c-4.33,0-7.86,3.53-7.86,7.86s3.53,7.86,7.86,7.86,7.86-3.53,7.86-7.86-3.53-7.86-7.86-7.86ZM41.07,17.9c-1.82,0-3.31-1.48-3.31-3.31s1.48-3.31,3.31-3.31,3.31,1.48,3.31,3.31-1.49,3.31-3.31,3.31Z"/>
        <path class="cls-1" d="M14.76,42.98v6.28c0,1.91,1.56,3.47,3.47,3.47s3.47-1.56,3.47-3.47v-10.37l4.55-1.34v11.71c0,4.42-3.6,8.02-8.02,8.02s-8.02-3.6-8.02-8.02v-6.28c0-4.68,3.14-8.83,7.63-10.12l38.37-11.45v4.75l-37.11,11.07c-2.56.73-4.34,3.09-4.34,5.75Z"/>
        <path class="cls-1" d="M41.34,57.28c-4.42,0-8.02-3.6-8.02-8.02v-13.77l4.55-1.34v15.11c0,1.91,1.56,3.47,3.47,3.47s3.47-1.56,3.47-3.47v-16.99l4.55-1.34v18.33c0,4.42-3.6,8.02-8.02,8.02Z"/>
      </g>
    </g>
  </g>
</svg>