<?xml version="1.0" encoding="UTF-8"?>
<svg id="Layer_2" xmlns="http://www.w3.org/2000/svg" viewBox="0 0 816.66 212.83">
  <defs>
    <style>
      .cls-1 {
        fill: #231f20;
      }
    </style>
  </defs>
  <g id="Layer_1-2" data-name="Layer_1">
    <g>
      <path class="cls-1" d="M32.37,29.69C14.53,29.69,0,44.2,0,62.06s14.53,32.35,32.37,32.35,32.35-14.51,32.35-32.35-14.51-32.37-32.35-32.37ZM32.37,75.67c-7.51,0-13.63-6.11-13.63-13.62s6.12-13.63,13.63-13.63,13.62,6.12,13.62,13.63-6.11,13.62-13.62,13.62Z"/>
      <path class="cls-1" d="M127.13,0c-17.84,0-32.35,14.53-32.35,32.37s14.51,32.35,32.35,32.35,32.37-14.51,32.37-32.35S144.98,0,127.13,0ZM127.13,45.98c-7.51,0-13.62-6.11-13.62-13.62s6.11-13.62,13.62-13.62,13.63,6.11,13.63,13.62-6.12,13.62-13.63,13.62Z"/>
      <path class="cls-1" d="M18.85,149.21v25.83c0,7.87,6.41,14.28,14.27,14.28s14.28-6.41,14.28-14.28v-42.68l18.74-5.51v48.19c0,18.2-14.81,33.02-33.02,33.02S.12,193.24.12,175.04v-25.83c0-19.24,12.92-36.36,31.42-41.66l157.91-47.1v19.56L36.72,125.56c-10.52,2.99-17.87,12.72-17.87,23.65Z"/>
      <path class="cls-1" d="M128.25,208.05c-18.2,0-33.01-14.81-33.01-33.01v-56.69l18.74-5.51v62.2c0,7.87,6.4,14.27,14.27,14.27s14.27-6.4,14.27-14.27v-69.91l18.74-5.51v75.43c0,18.2-14.81,33.01-33.01,33.01Z"/>
    </g>
    <g>
      <path class="cls-1" d="M276.27,70.48c-6.25,0-11.23-1.71-14.94-5.13-3.71-3.42-5.57-7.66-5.57-12.73s1.86-9.28,5.57-12.64c3.71-3.36,8.69-5.04,14.94-5.04s11.08,1.59,14.85,4.77c3.77,3.18,5.66,7.25,5.66,12.2,0,5.31-1.86,9.73-5.57,13.26-3.71,3.54-8.7,5.3-14.94,5.3ZM259.47,176.93v-96.02h33.6v96.02h-33.6Z"/>
      <path class="cls-1" d="M342.75,176.93v-96.02h-38.02v-27.76h110.87v27.76h-37.84v96.02h-35.01Z"/>
      <path class="cls-1" d="M467.42,178.52c-7.78,0-14.77-1.53-20.96-4.6-6.19-3.06-11.02-7.87-14.5-14.41-3.48-6.54-5.22-14.88-5.22-25.02v-53.58h33.6v48.1c0,7.43,1.38,12.76,4.16,16,2.77,3.24,6.69,4.86,11.76,4.86,3.3,0,6.33-.77,9.11-2.3,2.77-1.53,4.92-3.98,6.46-7.34,1.53-3.36,2.3-7.63,2.3-12.82v-46.51h33.6v96.02h-31.83v-27.05l6.19,7.6c-3.42,7.07-8.22,12.35-14.41,15.83-6.19,3.48-12.94,5.22-20.25,5.22Z"/>
      <path class="cls-1" d="M549.47,176.93V45.72h33.6v131.21h-33.6Z"/>
      <path class="cls-1" d="M635.05,178.52c-7.55,0-14-1.3-19.36-3.89-5.37-2.59-9.43-6.13-12.2-10.61-2.77-4.48-4.16-9.43-4.16-14.85,0-5.89,1.5-11.02,4.51-15.38,3.01-4.36,7.66-7.69,13.97-9.99,6.3-2.3,14.35-3.45,24.14-3.45h22.63v17.68h-18.04c-5.42,0-9.23.83-11.41,2.48-2.18,1.65-3.27,4.01-3.27,7.07,0,2.83,1.12,5.16,3.36,6.98,2.24,1.83,5.3,2.74,9.2,2.74s7.16-.91,10.17-2.74c3.01-1.83,5.16-4.62,6.45-8.4l4.6,12.38c-1.77,6.6-5.22,11.58-10.34,14.94-5.13,3.36-11.88,5.04-20.25,5.04ZM663.34,176.93v-17.86l-2.3-4.42v-32.89c0-5.3-1.62-9.4-4.86-12.29-3.24-2.89-8.4-4.33-15.47-4.33-4.6,0-9.28.77-14.06,2.3-4.77,1.53-8.81,3.48-12.11,5.84l-11.14-22.63c5.42-3.54,11.94-6.3,19.54-8.31,7.6-2,15.18-3.01,22.72-3.01,15.56,0,27.61,3.6,36.16,10.79,8.55,7.19,12.82,18.39,12.82,33.6v53.23h-31.3Z"/>
      <path class="cls-1" d="M745.39,181l-42.26-100.09h34.48l31.12,77.63-23.34,22.46ZM732.31,212.83c-4.95,0-10.02-.8-15.21-2.39-5.19-1.59-9.43-3.69-12.73-6.28l11.85-23.34c2,1.65,4.33,2.98,6.98,3.98,2.65,1,5.27,1.5,7.87,1.5,3.77,0,6.69-.83,8.75-2.48,2.06-1.65,3.86-4.3,5.39-7.96l4.42-10.96,2.65-3.36,32.54-80.64h31.83l-41.2,99.91c-3.42,8.25-7.25,14.71-11.49,19.36-4.24,4.66-8.99,7.93-14.23,9.81-5.25,1.88-11.05,2.83-17.42,2.83Z"/>
    </g>
  </g>
</svg>