<?xml version="1.0" encoding="UTF-8"?>
<svg id="Layer_2" xmlns="http://www.w3.org/2000/svg" viewBox="0 0 16 16">
  <defs>
    <style>
      .cls-1 {
        fill: #fff;
      }

      .cls-2 {
        fill: #ff601b;
      }
    </style>
  </defs>
  <g id="Layer_1-2" data-name="Layer_1">
    <g>
      <rect class="cls-2" x="0" width="16" height="16" rx="2.29" ry="2.29"/>
      <g>
        <path class="cls-1" d="M4.51,3.48c-1.08,0-1.97.88-1.97,1.97s.88,1.97,1.97,1.97,1.97-.88,1.97-1.97-.88-1.97-1.97-1.97ZM4.51,6.28c-.46,0-.83-.37-.83-.83s.37-.83.83-.83.83.37.83.83-.37.83-.83.83Z"/>
        <path class="cls-1" d="M10.27,1.68c-1.08,0-1.97.88-1.97,1.97s.88,1.97,1.97,1.97,1.97-.88,1.97-1.97-.88-1.97-1.97-1.97ZM10.27,4.47c-.46,0-.83-.37-.83-.83s.37-.83.83-.83.83.37.83.83-.37.83-.83.83Z"/>
        <path class="cls-1" d="M3.69,10.74v1.57c0,.48.39.87.87.87s.87-.39.87-.87v-2.59l1.14-.33v2.93c0,1.11-.9,2.01-2.01,2.01s-2-.9-2-2.01v-1.57c0-1.17.78-2.21,1.91-2.53l9.59-2.86v1.19l-9.28,2.77c-.64.18-1.09.77-1.09,1.44Z"/>
        <path class="cls-1" d="M10.33,14.32c-1.11,0-2.01-.9-2.01-2.01v-3.44l1.14-.33v3.78c0,.48.39.87.87.87s.87-.39.87-.87v-4.25l1.14-.33v4.58c0,1.11-.9,2.01-2.01,2.01Z"/>
      </g>
    </g>
  </g>
</svg>