<?xml version="1.0" encoding="UTF-8"?>
<svg id="Layer_2" xmlns="http://www.w3.org/2000/svg" viewBox="0 0 128 128">
  <defs>
    <style>
      .cls-1 {
        fill: #fff;
      }

      .cls-2 {
        fill: #ff601b;
      }
    </style>
  </defs>
  <g id="Layer_1-2" data-name="Layer_1">
    <g>
      <rect class="cls-2" width="128" height="128" rx="18.3" ry="18.3"/>
      <g>
        <path class="cls-1" d="M36.08,27.87c-8.67,0-15.73,7.05-15.73,15.73s7.06,15.72,15.73,15.72,15.72-7.05,15.72-15.72-7.05-15.73-15.72-15.73ZM36.08,50.22c-3.65,0-6.62-2.97-6.62-6.62s2.97-6.62,6.62-6.62,6.62,2.97,6.62,6.62-2.97,6.62-6.62,6.62Z"/>
        <path class="cls-1" d="M82.13,13.45c-8.67,0-15.72,7.06-15.72,15.73s7.05,15.72,15.72,15.72,15.73-7.05,15.73-15.72-7.05-15.73-15.73-15.73ZM82.13,35.79c-3.65,0-6.62-2.97-6.62-6.62s2.97-6.62,6.62-6.62,6.62,2.97,6.62,6.62-2.97,6.62-6.62,6.62Z"/>
        <path class="cls-1" d="M29.51,85.96v12.55c0,3.83,3.11,6.94,6.93,6.94s6.94-3.11,6.94-6.94v-20.74l9.11-2.68v23.42c0,8.85-7.2,16.05-16.05,16.05s-16.04-7.2-16.04-16.05v-12.55c0-9.35,6.28-17.67,15.27-20.24l76.74-22.89v9.5l-74.22,22.14c-5.11,1.45-8.68,6.18-8.68,11.49Z"/>
        <path class="cls-1" d="M82.68,114.55c-8.85,0-16.04-7.2-16.04-16.04v-27.55l9.11-2.68v30.23c0,3.82,3.11,6.94,6.94,6.94s6.94-3.11,6.94-6.94v-33.98l9.11-2.68v36.65c0,8.85-7.2,16.04-16.04,16.04Z"/>
      </g>
    </g>
  </g>
</svg>