<?xml version="1.0" encoding="UTF-8"?>
<svg id="Layer_2" xmlns="http://www.w3.org/2000/svg" viewBox="0 0 189.45 208.05">
  <defs>
    <style>
      .cls-1 {
        fill: #231f20;
      }
    </style>
  </defs>
  <g id="Layer_1-2" data-name="Layer_1">
    <g>
      <path class="cls-1" d="M32.37,29.69C14.53,29.69,0,44.2,0,62.06s14.53,32.35,32.37,32.35,32.35-14.51,32.35-32.35-14.51-32.37-32.35-32.37ZM32.37,75.67c-7.51,0-13.63-6.11-13.63-13.62s6.12-13.63,13.63-13.63,13.62,6.12,13.62,13.63-6.11,13.62-13.62,13.62Z"/>
      <path class="cls-1" d="M127.13,0c-17.84,0-32.35,14.53-32.35,32.37s14.51,32.35,32.35,32.35,32.37-14.51,32.37-32.35S144.98,0,127.13,0ZM127.13,45.98c-7.51,0-13.62-6.11-13.62-13.62s6.11-13.62,13.62-13.62,13.63,6.11,13.63,13.62-6.12,13.62-13.63,13.62Z"/>
      <path class="cls-1" d="M18.85,149.21v25.83c0,7.87,6.41,14.28,14.27,14.28s14.28-6.41,14.28-14.28v-42.68l18.74-5.51v48.19c0,18.2-14.81,33.02-33.02,33.02S.12,193.24.12,175.04v-25.83c0-19.24,12.92-36.36,31.42-41.66l157.91-47.1v19.56L36.72,125.56c-10.52,2.99-17.87,12.72-17.87,23.65Z"/>
      <path class="cls-1" d="M128.25,208.05c-18.2,0-33.01-14.81-33.01-33.01v-56.69l18.74-5.51v62.2c0,7.87,6.4,14.27,14.27,14.27s14.27-6.4,14.27-14.27v-69.91l18.74-5.51v75.43c0,18.2-14.81,33.01-33.01,33.01Z"/>
    </g>
  </g>
</svg>